<svg xmlns="http://www.w3.org/2000/svg" viewBox="0 0 1306.41 1244.68"><defs><style>.cls-1{fill:#e6e4f4;}.cls-2{fill:#f5c8c8;}.cls-3{fill:#f2d070;}.cls-11,.cls-24,.cls-30,.cls-4,.cls-5,.cls-6,.cls-7{fill:none;stroke-miterlimit:10;}.cls-4{stroke:#c1beed;}.cls-4,.cls-5,.cls-6,.cls-7{stroke-width:5px;}.cls-5{stroke:#edddb0;}.cls-6{stroke:#eda9a9;}.cls-7{stroke:#88e2b7;}.cls-8{fill:#121a35;}.cls-9{fill:#3a2f26;}.cls-10{fill:#191817;}.cls-11{stroke:#261f18;}.cls-11,.cls-24,.cls-30{stroke-width:2px;}.cls-12{fill:#7f340e;}.cls-13{fill:#4cbb89;}.cls-14{fill:#2b84f4;}.cls-15{fill:#46a3fd;}.cls-16{fill:#131338;}.cls-17{fill:#e0bd9b;}.cls-18{fill:#1c1713;}.cls-19{fill:#472bb0;}.cls-20{fill:#4e33b5;}.cls-21{fill:#4357e5;}.cls-22{fill:#4b60ed;}.cls-23{fill:#633411;}.cls-24{stroke:#b77844;}.cls-25{fill:#298436;}.cls-26{fill:#d37f5e;}.cls-27{fill:#594129;}.cls-28{fill:#23201e;}.cls-29{fill:#6b5134;}.cls-30{stroke:#3a230c;}.cls-31{fill:#3a230c;}.cls-32{fill:#7f320b;}.cls-33{fill:#1c1918;}.cls-34{fill:#8c1e0c;}.cls-35{fill:#21212d;}.cls-36{fill:#b3b3b3;}.cls-37{fill:#cbcbcb;}.cls-38{fill:#b21d24;}.cls-39{fill:#5f6270;}.cls-40{fill:#747884;}.cls-41{fill:#c4494f;}</style></defs><g id="Camada_2" data-name="Camada 2"><g id="Camada_2-2" data-name="Camada 2"><path class="cls-1" d="M441.59,497.1,360.92,643.91a27.41,27.41,0,0,1-23.44,14.2L170,661.65a27.39,27.39,0,0,1-24-13.2L59.19,505.19a27.38,27.38,0,0,1-.58-27.4L139.27,331a27.41,27.41,0,0,1,23.45-14.21l167.46-3.54a27.41,27.41,0,0,1,24,13.2L441,469.7A27.43,27.43,0,0,1,441.59,497.1Z"/><path class="cls-2" d="M1116.74,341.79,997,559.68a27.42,27.42,0,0,1-23.44,14.2L725,579.14a27.39,27.39,0,0,1-24-13.2L572.17,353.32a27.4,27.4,0,0,1-.58-27.41L691.31,108a27.41,27.41,0,0,1,23.44-14.21l248.56-5.26a27.43,27.43,0,0,1,24,13.2l128.83,212.63A27.38,27.38,0,0,1,1116.74,341.79Z"/><path class="cls-3" d="M754.16,760.92l-80.67,146.8a27.39,27.39,0,0,1-23.44,14.2l-167.47,3.55a27.43,27.43,0,0,1-24-13.2L371.76,769a27.4,27.4,0,0,1-.58-27.41l80.66-146.8a27.4,27.4,0,0,1,23.44-14.2l167.47-3.55a27.43,27.43,0,0,1,24,13.2l86.8,143.26A27.45,27.45,0,0,1,754.16,760.92Z"/><path class="cls-4" d="M176.64,723.59l-54.71-6a4.48,4.48,0,0,1-3.62-2.65L96.14,664.58a4.49,4.49,0,0,1,.49-4.46l32.54-44.39a4.51,4.51,0,0,1,4.11-1.81l54.71,6a4.45,4.45,0,0,1,3.61,2.65l22.18,50.37a4.49,4.49,0,0,1-.49,4.46l-32.54,44.39A4.48,4.48,0,0,1,176.64,723.59Z"/><path class="cls-5" d="M980.39,779.14l-51.58,19.2a4.5,4.5,0,0,1-4.43-.75L882,762.52a4.46,4.46,0,0,1-1.57-4.2l9.16-54.27a4.5,4.5,0,0,1,2.86-3.46L944,681.39a4.5,4.5,0,0,1,4.43.75l42.41,35.07a4.46,4.46,0,0,1,1.57,4.2l-9.16,54.27A4.5,4.5,0,0,1,980.39,779.14Z"/><path class="cls-5" d="M919.33,895.11,893.2,875.24a4.5,4.5,0,0,1-1.74-4.14l4.15-32.57a4.5,4.5,0,0,1,2.72-3.58l30.28-12.69a4.49,4.49,0,0,1,4.45.57l26.13,19.88a4.47,4.47,0,0,1,1.74,4.13l-4.15,32.58a4.48,4.48,0,0,1-2.72,3.57l-30.28,12.69A4.49,4.49,0,0,1,919.33,895.11Z"/><path class="cls-6" d="M539.76,162.47l-72.51,1.07a4.49,4.49,0,0,1-3.92-2.18L426.15,99.1a4.5,4.5,0,0,1-.06-4.49l35.33-63.33a4.5,4.5,0,0,1,3.85-2.3l72.51-1.06a4.5,4.5,0,0,1,3.92,2.18l37.17,62.26a4.48,4.48,0,0,1,.07,4.49l-35.33,63.32A4.48,4.48,0,0,1,539.76,162.47Z"/><path class="cls-7" d="M415.06,277.71l-24-36.72a4.49,4.49,0,0,1-.25-4.48l19.8-39.15a4.5,4.5,0,0,1,3.76-2.45l43.8-2.42a4.47,4.47,0,0,1,4,2l24,36.72a4.46,4.46,0,0,1,.25,4.48l-19.8,39.15a4.47,4.47,0,0,1-3.75,2.45l-43.8,2.43A4.53,4.53,0,0,1,415.06,277.71Z"/><path class="cls-8" d="M970.84,70.74S987.16,51.13,1039.77,60c0,0,54.57,12.3,65.85,70.35,0,0,8.33,41.87,55.37,39.42,0,0,59.41-1,49.55,34.8,0,0,.44-16.66-24.55-16.17,0,0,42.56,47.41,28.42,97a32.9,32.9,0,0,0-16.17-25.48s-7.84,87.23-57.83,106.34c0,0-62.73-29.89-69.1-64.69,0,0-4.41,33.82,10.29,41.66,0,0-55.38-46.07-69.59-84.78Z"/><path class="cls-9" d="M943.16,107s-20.59,37.49-16.42,60.28,34.3,28.92,46.31,29.9,35-7.11,39.94-17.89c0,0,15-22.79,16.66-31.61,0,0,13.48-.49,14.22-9.8s-2.94-14.95-15.2-8.82l-18.62-47.79s-51.21,5.4-53.91,6.38S943.16,107,943.16,107Z"/><ellipse class="cls-10" cx="948.85" cy="125.12" rx="4.96" ry="3.26" transform="translate(667.52 1039.9) rotate(-80.42)"/><ellipse class="cls-10" cx="984.84" cy="128.76" rx="4.96" ry="3.26" transform="translate(693.93 1078.42) rotate(-80.42)"/><path class="cls-11" d="M962,115.4s-2.2,27.75-18.19,39.51c0,0,6.06,2.57,13.78-4"/><path class="cls-11" d="M959.63,172.92c.74,0,11.21-4,14.89-13.78"/><ellipse class="cls-12" cx="990.51" cy="153.75" rx="9.75" ry="10.4"/><path class="cls-8" d="M1014.46,106.27H931.64S922.82,67.06,976,67.06c0,0,53.91-5.14,54.4,42.88,0,0-2.7,47.79-27,63C1003.43,172.92,1023,137.88,1014.46,106.27Z"/><path class="cls-12" d="M928.89,142.5a71.48,71.48,0,0,0-2.69,18.9,9.54,9.54,0,0,0,1.21.12c5,0,9-4.29,9-9.59A9.42,9.42,0,0,0,928.89,142.5Z"/><path class="cls-9" d="M1028.63,216.45s-21.06-.69-9.76-52.3l-33.8,26.15s11.8,19.85,0,26.15c-2.46,1.31-18,13.07-18,13.07v41.17s30.74,9.8,33.18,9.31,47.53-50.48,47.53-50.48l-19.16-13.07"/><path class="cls-13" d="M1027.34,130.31a15.4,15.4,0,0,1,11.57-3.63S1053,47.29,967.08,67.47C967.08,67.47,1033.71,58.76,1027.34,130.31Z"/><path class="cls-9" d="M825.61,239.88s-5-60.56-2.89-73.85l-1.47-3c-1.25-2.27-4.22-.66-6.07,1.16l-1,1.88a35.5,35.5,0,0,0-2.13,9.23l-1.4,21.87-13.81.09a7,7,0,0,0-6.52,4.68l-5.61,16.21a7.77,7.77,0,0,0,1.72,7.89l7.92,8.31s6.37.35,7.4,5.57,3.69,26,3.69,26l20.13-26"/><path class="cls-9" d="M810.69,197.13l-17.45-3.68a4.59,4.59,0,0,0-4.91,2.16l-7.23,12.23a2.74,2.74,0,0,0-.23,2.3l5.6,15.86,6.48,2.79,2.62-25Z"/><path class="cls-9" d="M822.57,211.26l13.66-7a4.84,4.84,0,0,1,7,3.91h0a4.84,4.84,0,0,1-2.26,4.49c-5.92,3.67-20.3,12.7-19.89,13.35s-.51-5.68-1.11-9.76A4.81,4.81,0,0,1,822.57,211.26Z"/><path class="cls-9" d="M1202.64,346.43l18.43,31,2.51,1.11a2.23,2.23,0,0,0,3.12-1.79h0a11.26,11.26,0,0,0-.41-4.58l-4.45-14.77s20,7.48,27.48,16.95a2.26,2.26,0,0,0,4-1.12l2.55-17.82a14.79,14.79,0,0,0-7.39-15c-8.57-4.81-21.78-11.39-32.06-12.81-2.32-.32-8.18-5.29-8.18-5.29l-9.57,7.28Z"/><path class="cls-14" d="M1288,625.93c-12.12-22-26.94-15.6-26.94-15.6l-22.2,1.85c-33.47-.2-81.18-20.47-81.18-20.47-37.53-18.27-97.26-28.45-97.26-28.45l32-164.22-76.18-13.62-27.17,42.69,14.22,159.23,8,22.12a42.39,42.39,0,0,0,39.22,28l192.66,3c15,2.73,27.52,28.58,27.52,28.58,17.25,28.73,35.08,14.29,35.08,14.29C1310.27,665.65,1288,625.93,1288,625.93Z"/><path class="cls-15" d="M1092.46,399s52.24,67.72-25.85,98.79l-45.69,99.81s41.64,44,60.67,81.17c0,0,26,44.88,52.59,65.14l18.87,11.86s15.72,3.74,12.16,28.65c0,0-6.08,45.11-20.24,56.54,0,0-22.93.83-19.46-32.5,0,0,5.53-28.18-4.83-39.38L968.45,651a42.41,42.41,0,0,1-14.55-45.93l61.8-201.69Z"/><path class="cls-13" d="M1028.63,216.45s4.94,28.12-25.1,34.29-26.51-29-26.51-29a14.65,14.65,0,0,0-3.67,1.93,1.77,1.77,0,0,0-2.4.2c-16.82,17.8-62.82,66.06-77,76.75-5.38,4.05-16.15,7.39-22.83,6.54-17.3-2.18-29.18-6.07-45.47-69.79l-23.72,14s10.47,88.12,69.78,91.14c0,0,27.31,1.42,83.14-39.47a367.65,367.65,0,0,0,6.2,41.06s18.65,71.7,28.1,84c0,0,66.19-32.4,103.35-29.07,0,0-31.08-33.61-31.86-120.45l0-.09,1.29-.29s89.07,23.28,129.06,66.44l19.64-20.17S1119.09,233.44,1028.63,216.45Z"/><path class="cls-9" d="M1158.18,758.59a14.69,14.69,0,0,0-5.13-2.78L1134.18,744A118.13,118.13,0,0,1,1121,732.07l-19.94,21.85,19.58,15.2c5.38,5.82,6.47,16.24,6.28,24.89C1136.49,783.52,1148.79,769.51,1158.18,758.59Z"/><path class="cls-16" d="M1153.05,755.81l-7.23-4.55s6.07,5.69-3.88,13.36-14.2-8.76-21.26,4.5c10.36,11.2,4.83,39.38,4.83,39.38C1122,841.83,1145,841,1145,841c14.16-11.43,20.24-56.54,20.24-56.54C1168.77,759.55,1153.05,755.81,1153.05,755.81Z"/><path class="cls-9" d="M1261.1,610.33l-22.2,1.85a120.09,120.09,0,0,1-18.38-1.71c-.76,9.41-1.47,20.38-1.61,29.57l24.31.38c5.76,1.05,11.15,5.51,15.61,10.6,7.23-11.39,15.85-25.56,20.92-35.95C1270.06,606.43,1261.1,610.33,1261.1,610.33Z"/><path class="cls-16" d="M1270.74,669c17.25,28.73,35.08,14.29,35.08,14.29,4.45-17.64-17.78-57.36-17.78-57.36-12.12-22-26.94-15.6-26.94-15.6l-7.18.6s9.48,6.56,3.93,16-9.52-4.49-14.63,13.54C1258.23,643.15,1270.74,669,1270.74,669Z"/><path class="cls-15" d="M1046.5,711.56l62.74,54.52s20.37-14.4,21.55-32.72c0,0-40.41-39.24-49.2-54.55l-36.65,17.59Z"/><path class="cls-14" d="M1057.29,637.54l172.94,6.51s10-10.83,8.67-31.87c0,0-43.7-5.3-74.61-17.84,0,0-42.21-19.82-80.07-26.25l-34.92,14.74Z"/><path class="cls-17" d="M424.33,193s6.69-9,16.25-11.74c0,0,14.46-3.5,14.46-26,0-1.23-15.36-24.51-15.36-24.51S415,184,415.16,184.13,424.33,193,424.33,193Z"/><polygon class="cls-18" points="419.39 161.4 421.47 104.46 467.53 97 455.28 170.06 419.39 170.06 419.39 161.4"/><path class="cls-17" d="M246.92,155.28s-17.07-.37-17.81-32.35l-42.43-13.05s21,31.44,6.55,45.4c0,0-10.06,5.77-15.58,11.76l61.75,32.52,14.39-39.78Z"/><path class="cls-17" d="M407.75,178.77s6.22-5.45,7.28-35.24a3,3,0,0,1,3-3h15.47s.28,5.43-5.8,6.81l-4.42.83s18.66,20.17,6.63,30.56c-1.38,1.19-16.46,20.79-17.28,20.79s-7.85-3-7.85-3Z"/><path class="cls-17" d="M165.16,422l23.89,33.6v3.14a2.55,2.55,0,0,1-3.32,2.44h0a13.09,13.09,0,0,1-4.6-2.55l-13.4-11.48s-1.42,24.38,5,36.59a2.58,2.58,0,0,1-3,3.64l-19.82-5.57a16.91,16.91,0,0,1-12.29-14.68c-1.07-11.18-1.84-28,1.42-39.46.73-2.58-1.76-11-1.76-11l12-6.65Z"/><path class="cls-17" d="M445.52,705a14.33,14.33,0,0,1-.57-5.68l-3.55-21.52a115.8,115.8,0,0,0-5.73-16.38l27.29-9.7,6.28,23.43c3.22,7.08,12.2,12,20.09,15.12C476.24,694.85,458.94,700.63,445.52,705Z"/><path class="cls-16" d="M445,699.28,443.59,691s2.83,7.63,13.53,1.57-2.52-16.14,12.12-17.49c6.18,13.6,33.71,19.3,33.71,19.3,31.4,9.53,21.95,29.9,21.95,29.9-15.69,8.44-58.7-3.19-58.7-3.19C442.36,714.89,445,699.28,445,699.28Z"/><path class="cls-17" d="M444.13,559.19a14.44,14.44,0,0,1,1.6-5.49l4.77-21.28a115.7,115.7,0,0,0,.82-17.33l28.94,1.23-2.95,24.08c.33,7.76,6.81,15.7,13,21.53C476.4,561.31,458.19,560.2,444.13,559.19Z"/><path class="cls-16" d="M445.73,553.7l1.83-8.16s-.23,8.15,12,6.53,3.7-15.91,17.79-11.67c.63,14.92,24,30.52,24,30.52,25.55,20.58,9.16,35.93,9.16,35.93-17.71,2-53.24-24.93-53.24-24.93C437.49,567.21,445.73,553.7,445.73,553.7Z"/><path class="cls-19" d="M303.7,308.14a235.21,235.21,0,0,1,23.12,23.77l149.31,12.23a30.13,30.13,0,0,1,27.29,34.75L480.2,525.23s-27.34,10.36-43.88-4.58l12-118.88a5.56,5.56,0,0,0-6.27-6.06l-127.18,17.1-69.41-25.72,21.38-82.54Z"/><path class="cls-20" d="M206.3,342.44s-16.94,98.82,49,117.71l106.18,58.43,63.53,147.53s38.14,3.53,46.25-15.15L415,492.26a51.73,51.73,0,0,0-14.15-21.16L299,379.25s-7.64-64.28-5.79-65.62S206.3,342.44,206.3,342.44Z"/><path class="cls-21" d="M406.77,178s-54.19,38.26-75.13,21.37c0,0-33.86-39.17-84.72-44.1,0,0,35.51,32.77,30.25,43.75,0,0,14.69,19,16.64,20.23s49.62,53.1,97.61,2.42l34.26-29.87Z"/><path class="cls-22" d="M181.4,163.61S97.91,229,138.61,423L165.16,422s-17.25-114.55,24.59-176.38c0,0,18.49,69.54,16.55,96.85,0,0,82.79-3.95,97.4-34.3,0,0-10.9-35-7.28-71.26,0,0,18.71-38.74-49.5-81.6,0,0,8.55,23.72-9.55,30.15S181.4,163.61,181.4,163.61Z"/><path class="cls-23" d="M246.2,23.7c.42-4.11-9.12-10.17-11.69-11.76C220.08,3,195.85-2.37,179.23,1,162,4.55,141.61,24.69,134.62,40.73c-9.14,21,1.39,41.53,16.39,56.69,9.34,9.43,20.16,16.52,31,24.06,0,0,32.26,22.47,54.11,0Z"/><path class="cls-17" d="M246.2,23.7S292.75,69.05,272.28,110s-77.44,14.44-77.44,14.44l-4.79-8.54-3.37-6-10.3-18.36s-12,6.42-19.66-6.82,11.63-22.87,18.05-16.86c0,0,22.88-14.84,32.91-51.76C207.68,16.08,240.58,27.72,246.2,23.7Z"/><path class="cls-24" d="M236.7,47.38s-3.34,9.36,5.89,17.25,11.77,14.72,11.1,18.46-4,7.36-10.7,5.49"/><path class="cls-24" d="M245,103.42s-15.34,6.16-26.17-11.5"/><ellipse class="cls-25" cx="215.17" cy="60.82" rx="3.61" ry="5.55"/><ellipse class="cls-25" cx="251.42" cy="52.93" rx="3.61" ry="5.55"/><circle class="cls-26" cx="202.39" cy="87.84" r="9.16"/><path class="cls-26" d="M273.66,66.52a9.42,9.42,0,0,0-1.51-.15,9.17,9.17,0,1,0,5.14,16.75A68.43,68.43,0,0,0,273.66,66.52Z"/><path class="cls-17" d="M196.56,131l29.24,7.65s-1.34-18.62-2.94-19-35-7.63-35-7.63Z"/><path class="cls-23" d="M158.71,104.46s-7.77,57.43-126.36,82.92c0,0-29.41,15.9-32.35,56.47,0,0,8.82-32,53.91-36.87,0,0-31.37,15.68-19.6,52,0,0,7.48,24.19,24.32,30.23,0,0,3.12-52.78,44.29-67.48s62.65-111.8,62.65-111.8Z"/><path class="cls-27" d="M756.46,725c2.67-4.07,24.72-20.61,17.37-48.18l37.86-3.67a86.51,86.51,0,0,0,18,37.17c14.8,17.81-60.25,59.86-60.25,59.86l-22.79-19.85L756.46,725"/><circle class="cls-28" cx="731.65" cy="617.05" r="33.17"/><ellipse class="cls-28" cx="741.23" cy="568.22" rx="46.86" ry="45.72"/><ellipse class="cls-28" cx="804.53" cy="557.96" rx="43.76" ry="45.72"/><ellipse class="cls-28" cx="844.17" cy="606.54" rx="37.63" ry="32.8"/><ellipse class="cls-28" cx="855.6" cy="570.67" rx="18.93" ry="20.19"/><circle class="cls-28" cx="841.22" cy="652.93" r="28.81"/><ellipse class="cls-28" cx="827.48" cy="681.65" rx="15.07" ry="13.97"/><path class="cls-29" d="M760.22,568.68s-36.08,24.26-32,75,42.31,54.56,42.31,54.56,50.35,14.18,59.54-39.85c0,0,20.58,4.77,18-17.65s-18.38-6.43-18.38-6.43-21.68-7.53-15.07-41.35C814.62,592.94,771.62,610.22,760.22,568.68Z"/><path class="cls-30" d="M761.88,615.73s2,19.48-4.23,26.1-.11,13.23,4.54,11.39,3.36-3.12,3.36-3.12"/><ellipse class="cls-31" cx="747.28" cy="624.37" rx="3.05" ry="5.88"/><ellipse class="cls-31" cx="793.3" cy="624.37" rx="3.05" ry="5.88"/><ellipse class="cls-32" cx="740.47" cy="646.14" rx="8.18" ry="5.97"/><ellipse class="cls-32" cx="797.99" cy="646.14" rx="9.81" ry="7.17"/><path class="cls-33" d="M768.85,666.63a6.94,6.94,0,0,1-2.61,0c-2.73-.48-10.65-1.37-6.66,5.22,2.39,4,7.2,4.62,11.41,4.1,2.72-.33,5.77-.78,8-2.54a17.42,17.42,0,0,0,4.38-5.24,18.33,18.33,0,0,0,1.79-4.68c.38-1.66.48-4-1.65-4.36a7.82,7.82,0,0,0-5.11,1.34c-1.27,1-2.32,2.25-3.62,3.21A15.58,15.58,0,0,1,768.85,666.63Z"/><path class="cls-34" d="M775.31,668.3c-3.35,2.35-5.08,5.67-4.11,7.64,2.67-.32,5.62-.79,7.76-2.51a17.42,17.42,0,0,0,4.38-5.24c.21-.38.37-.79.55-1.18C782.35,665.44,778.65,666,775.31,668.3Z"/><path class="cls-29" d="M362.2,1164.43l-5.7,29.44s-29.44,16.86-79.35,7.93c0,0-27.46-.94-27,19.5,0,0,6.38,12.14,29.22,14.38,0,0,95.76,16.34,97.23,5l27-68.23Z"/><path class="cls-35" d="M279.32,1235.68s95.76,16.34,97.23,5l10-25.17c-16.08-3.07-26.5-13.88-31.68-20.77-6.78,3.28-34.58,14.79-77.69,7.08,0,0-27.46-.94-27,19.5C250.1,1221.3,256.48,1233.44,279.32,1235.68Z"/><path class="cls-29" d="M411.38,992.83l-5.69,29.45s-29.44,16.85-79.36,7.93c0,0-27.45-1-27,19.5,0,0,6.38,12.14,29.22,14.38,0,0,95.76,16.33,97.23,5l27-68.24Z"/><path class="cls-35" d="M328.51,1064.09s95.76,16.33,97.23,5l10-25.17c-16.07-3.07-26.49-13.88-31.67-20.77-6.79,3.28-34.58,14.79-77.7,7.08,0,0-27.45-1-27,19.5C299.29,1049.71,305.67,1061.85,328.51,1064.09Z"/><path class="cls-36" d="M683.62,865.66,480.11,822.92a39,39,0,0,0-46.05,29.34l-35,150.19s30.92,17.95,59,6.18l35.35-99.94a4.11,4.11,0,0,1,6.24-2l147.31,104,71.85-34.47,30.63-40.74Z"/><path class="cls-37" d="M747.19,1019.65s-.46,41.06-53.71,49.47L492,1040.3a9.37,9.37,0,0,0-9.77,5.2L404,1207.7s-55.24,5.63-54.47-24c.09-3.48,57.08-136.77,82.25-195.48a43.56,43.56,0,0,1,41.38-26.38l181.94,5.6,22.07-54.1Z"/><path class="cls-38" d="M757.16,721.41S746.94,746.78,763.7,743c0,0,45.53-9.74,66-32.7,0,0,78.8,70.15,10.09,188.51,0,0-85,145-94.58,146.82-1.89.36-135.3-156-135.3-156S674,881.7,757.16,721.41Z"/><polygon class="cls-39" points="658.13 914.75 525.94 895 495.25 805.42 590.02 819.38 658.13 914.75"/><polygon class="cls-40" points="525.94 895 542.2 743.22 491.86 668.76 478 800.63 525.94 895"/><path class="cls-29" d="M656.86,860.68,629,855.29s-.71-3.41-21.87-11c0,0-21.58-8.27-32.18-2.82,0,0-24.49,11-23.82,16,0,0-.19,3.78,2.59,3.5A69.2,69.2,0,0,0,568.92,857s-5.88,9.23-5.58,14.75a11.44,11.44,0,0,0,3.7,3.44s.18,4.67,3.18,4.7c0,0,3.16,2,3.22-5.37A51.74,51.74,0,0,1,580,861.9s17.81,9.45,18.6,9.6,5.65,6,21.79,8.58l37,8.8Z"/><path class="cls-29" d="M628.25,814l-30-8.53s-2.54-3.76-18.87-11c0,0-30-9.63-38,.56,0,0-7.17,28.61-1,30.36,0,0,3.84,1.29,4.58-6.75l2.51-8.79,18.22,7.34s-14.23,15.75-8.35,16.37c0,0,21.94-7.19,24.1-12.23l36.62,14.17Z"/><path class="cls-41" d="M647.65,858.9l-.41,33.19,112.68,55.07a28.46,28.46,0,0,0,38.21-13.37l57.52-121.22a50,50,0,0,0,1.29-39.88l-1.57-3.94a45.8,45.8,0,0,0-50.84-28.13h0A23.42,23.42,0,0,0,786,758.32L759.26,872.67a6.94,6.94,0,0,1-8,5.24Z"/><path class="cls-38" d="M756.46,725l-90.28,90.83a13.19,13.19,0,0,1-12.42,3.55l-37.44-8.83L611.8,844,663.11,859C688.27,834.92,720.59,794.14,756.46,725Z"/></g></g></svg>